HIERARCHY
ROOT hip
{
  OFFSET 0 0 0
  CHANNELS 6 Xposition Yposition Zposition Zrotation Yrotation Xrotation
  JOINT abdomen
  {
    OFFSET 0 20.6881 -0.73152
    CHANNELS 3 Zrotation Xrotation Yrotation
    JOINT chest
    {
      OFFSET 0 11.7043 -0.48768
      CHANNELS 3 Zrotation Xrotation Yrotation
      JOINT neck
      {
        OFFSET 0 22.1894 -2.19456
        CHANNELS 3 Zrotation Xrotation Yrotation
        JOINT head
        {
          OFFSET -0.24384 7.07133 1.2192
          CHANNELS 3 Zrotation Xrotation Yrotation
          JOINT leftEye
          {
            OFFSET 4.14528 8.04674 8.04672
            CHANNELS 3 Zrotation Xrotation Yrotation
            End Site
            {
              OFFSET 1 0 0
            }
          }
          JOINT rightEye
          {
            OFFSET -3.6576 8.04674 8.04672
            CHANNELS 3 Zrotation Xrotation Yrotation
            End Site
            {
              OFFSET 1 0 0
            }
          }
        }
      }
      JOINT rCollar
      {
        OFFSET -2.68224 19.2634 -4.8768
        CHANNELS 3 Zrotation Xrotation Yrotation
        JOINT rShldr
        {
          OFFSET -8.77824 -1.95073 1.46304
          CHANNELS 3 Zrotation Xrotation Yrotation
          JOINT rForeArm
          {
            OFFSET -28.1742 -1.7115 0.48768
            CHANNELS 3 Zrotation Xrotation Yrotation
            JOINT rHand
            {
              OFFSET -22.5879 0.773209 7.07136
              CHANNELS 3 Zrotation Xrotation Yrotation
              JOINT rThumb1
              {
                OFFSET -1.2192 -0.487915 3.41376
                CHANNELS 3 Zrotation Xrotation Yrotation
                JOINT rThumb2
                {
                  OFFSET -3.37035 -0.52449 3.41376
                  CHANNELS 3 Zrotation Xrotation Yrotation
                  End Site
                  {
                    OFFSET -1.78271 -1.18214 1.43049
                  }
                }
              }
              JOINT rIndex1
              {
                OFFSET -7.75947 0.938293 5.60832
                CHANNELS 3 Zrotation Xrotation Yrotation
                JOINT rIndex2
                {
                  OFFSET -2.54057 -0.884171 1.56538
                  CHANNELS 3 Zrotation Xrotation Yrotation
                  End Site
                  {
                    OFFSET -1.62519 -0.234802 1.16502
                  }
                }
              }
              JOINT rMid1
              {
                OFFSET -8.24714 1.18213 3.41376
                CHANNELS 3 Zrotation Xrotation Yrotation
                JOINT rMid2
                {
                  OFFSET -3.10165 -0.590103 1.0647
                  CHANNELS 3 Zrotation Xrotation Yrotation
                  End Site
                  {
                    OFFSET -2.48547 -0.328903 0.83742
                  }
                }
              }
              JOINT rRing1
              {
                OFFSET -8.82822 0.546677 1.51678
                CHANNELS 3 Zrotation Xrotation Yrotation
                JOINT rRing2
                {
                  OFFSET -2.60934 -0.819778 -0.0198488
                  CHANNELS 3 Zrotation Xrotation Yrotation
                  End Site
                  {
                    OFFSET -2.33842 -0.294052 0.168128
                  }
                }
              }
              JOINT rPinky1
              {
                OFFSET -8.27202 -0.0477905 -0.4584
                CHANNELS 3 Zrotation Xrotation Yrotation
                JOINT rPinky2
                {
                  OFFSET -1.82734 -0.647385 -0.700984
                  CHANNELS 3 Zrotation Xrotation Yrotation
                  End Site
                  {
                    OFFSET -1.69225 -0.51767 -0.607171
                  }
                }
              }
            }
          }
        }
      }
      JOINT lCollar
      {
        OFFSET 2.68224 19.2634 -4.8768
        CHANNELS 3 Zrotation Xrotation Yrotation
        JOINT lShldr
        {
          OFFSET 8.77824 -1.95073 1.46304
          CHANNELS 3 Zrotation Xrotation Yrotation
          JOINT lForeArm
          {
            OFFSET 28.1742 -1.7115 0.48768
            CHANNELS 3 Zrotation Xrotation Yrotation
            JOINT lHand
            {
              OFFSET 22.5879 0.773209 7.07136
              CHANNELS 3 Zrotation Xrotation Yrotation
              JOINT lThumb1
              {
                OFFSET 1.2192 -0.487915 3.41376
                CHANNELS 3 Zrotation Xrotation Yrotation
                JOINT lThumb2
                {
                  OFFSET 3.37035 -0.52449 3.41376
                  CHANNELS 3 Zrotation Xrotation Yrotation
                  End Site
                  {
                    OFFSET 1.78271 -1.18214 1.43049
                  }
                }
              }
              JOINT lIndex1
              {
                OFFSET 7.75947 0.938293 5.60832
                CHANNELS 3 Zrotation Xrotation Yrotation
                JOINT lIndex2
                {
                  OFFSET 2.54057 -0.884171 1.56538
                  CHANNELS 3 Zrotation Xrotation Yrotation
                  End Site
                  {
                    OFFSET 1.62519 -0.234802 1.16502
                  }
                }
              }
              JOINT lMid1
              {
                OFFSET 8.24714 1.18213 3.41376
                CHANNELS 3 Zrotation Xrotation Yrotation
                JOINT lMid2
                {
                  OFFSET 3.10165 -0.590103 1.0647
                  CHANNELS 3 Zrotation Xrotation Yrotation
                  End Site
                  {
                    OFFSET 2.48547 -0.328903 0.83742
                  }
                }
              }
              JOINT lRing1
              {
                OFFSET 8.82822 0.546677 1.51678
                CHANNELS 3 Zrotation Xrotation Yrotation
                JOINT lRing2
                {
                  OFFSET 2.60934 -0.819778 -0.0198488
                  CHANNELS 3 Zrotation Xrotation Yrotation
                  End Site
                  {
                    OFFSET 2.33842 -0.294052 0.168128
                  }
                }
              }
              JOINT lPinky1
              {
                OFFSET 8.27202 -0.0477905 -0.4584
                CHANNELS 3 Zrotation Xrotation Yrotation
                JOINT lPinky2
                {
                  OFFSET 1.82734 -0.647385 -0.700984
                  CHANNELS 3 Zrotation Xrotation Yrotation
                  End Site
                  {
                    OFFSET 1.69225 -0.51767 -0.607171
                  }
                }
              }
            }
          }
        }
      }
    }
  }
  JOINT rButtock
  {
    OFFSET -8.77824 4.35084 1.2192
    CHANNELS 3 Zrotation Xrotation Yrotation
    JOINT rThigh
    {
      OFFSET 0 -1.70687 -2.19456
      CHANNELS 3 Zrotation Xrotation Yrotation
      JOINT rShin
      {
        OFFSET 0 -36.8199 0.73152
        CHANNELS 3 Zrotation Xrotation Yrotation
        JOINT rFoot
        {
          OFFSET 0.73152 -45.1104 -5.12064
          CHANNELS 3 Zrotation Xrotation Yrotation
          End Site
          {
            OFFSET -1.1221 -3.69964 12.103
          }
        }
      }
    }
  }
  JOINT lButtock
  {
    OFFSET 8.77824 4.35084 1.2192
    CHANNELS 3 Zrotation Xrotation Yrotation
    JOINT lThigh
    {
      OFFSET 0 -1.70687 -2.19456
      CHANNELS 3 Zrotation Xrotation Yrotation
      JOINT lShin
      {
        OFFSET 0 -36.8199 0.73152
        CHANNELS 3 Zrotation Xrotation Yrotation
        JOINT lFoot
        {
          OFFSET -0.73152 -45.1104 -5.12064
          CHANNELS 3 Zrotation Xrotation Yrotation
          End Site
          {
            OFFSET 1.1221 -3.69964 12.103
          }
        }
      }
    }
  }
}
MOTION
Frames:	4
Frame Time:	0.00833333
51.9367 85.5269 146.191 0.0 0.0 0.0 2.34099 -0.00222384 0.0637208 0.64659 0.00595039 0.111937 3.64827e-14 7.95139e-16 4.47266e-16 1.10416e-13 3.18055e-15 1.3418e-15 -0.0 0.0 0.0 -0.0 0.0 0.0 1.8287e-14 -7.92033e-17 3.47873e-16 3.90135e-13 -1.85118e-15 7.55382e-15 6.70272e-12 -2.0606e-12 2.8625e-14 7.66193e-11 1.70562e-12 1.1291e-12 1.80766e-10 -7.63685e-13 2.51264e-12 3.12168e-10 -1.31357e-12 4.31522e-12 1.8077e-10 -7.62936e-13 2.48719e-12 7.73091 5.47488 0.417314 1.80765e-10 -7.63631e-13 2.5031e-12 2.90554 0.965183 0.102902 1.8077e-10 -7.63532e-13 2.50389e-12 10.2786 0.731801 0.0259123 1.80765e-10 -7.63731e-13 2.51582e-12 2.22167 -0.733487 -0.20892 1.80918e-14 -7.68738e-17 4.96962e-17 3.86949e-13 -1.77043e-15 5.36719e-15 6.68662e-12 1.95385e-12 4.77083e-14 7.66648e-11 -2.30734e-12 1.11637e-12 1.80824e-10 -7.66114e-13 2.49037e-12 3.12291e-10 -1.32311e-12 4.30329e-12 1.8082e-10 -7.67309e-13 2.49674e-12 -7.73091 5.47488 -0.417314 1.80825e-10 -7.66613e-13 2.49355e-12 -2.90554 0.965183 -0.102902 1.80819e-10 -7.66017e-13 2.49515e-12 -10.2786 0.731801 -0.0259123 1.8083e-10 -7.64526e-13 2.48401e-12 -2.22167 -0.733487 0.20892 -2.03217e-16 0.0 -3.88251e-19 2.21586 -8.02969 -0.231385 0.0060693 8.9736 0.152049 -0.478082 -0.951421 0.0349061 2.03217e-16 0.0 3.88251e-19 1.35244 -1.92788 -0.00536418 0.00846384 -2.07867 0.0694359 0.423472 3.99898 -0.127232
52.5368 85.0289 134.135 -178.997 -3.4241 177.841 2.98014 1.40215 2.06027 0.21298 -2.31777 0.693364 1.82095 2.98181 3.74282 0.0669947 -2.76575 7.04843 -0.0 0.0 0.0 -0.0 0.0 0.0 2.97912e-14 -5.60091e-14 1.15023e-14 21.0293 7.30792 -4.33133 -4.37607 -2.0204 6.79997 0.125958 7.8867 1.07085 -3.3899e-10 2.12202e-10 -2.2529e-11 -5.85401e-10 3.5591e-10 -2.72798e-11 -3.38986e-10 2.12204e-10 -2.2549e-11 7.73091 5.47488 0.417314 -3.38991e-10 2.12202e-10 -2.25359e-11 2.90554 0.965183 0.102902 -3.38986e-10 2.12202e-10 -2.25337e-11 10.2786 0.731801 0.0259123 -3.38992e-10 2.12203e-10 -2.2522e-11 2.22167 -0.733487 -0.20892 2.96178e-14 -5.60079e-14 1.11859e-14 -21.5656 8.24307 2.99776 5.18334 -2.58521 -7.8305 -0.0441154 4.6619 -0.647378 -5.70611e-11 -4.41249e-10 -2.76388e-10 -1.02712e-10 -7.65166e-10 -4.75089e-10 -5.70636e-11 -4.41249e-10 -2.76382e-10 -7.73091 5.47488 -0.417314 -5.70598e-11 -4.41249e-10 -2.76388e-10 -2.90554 0.965183 -0.102902 -5.70657e-11 -4.41249e-10 -2.76386e-10 -10.2786 0.731801 -0.0259123 -5.70552e-11 -4.41247e-10 -2.76395e-10 -2.22167 -0.733487 0.20892 -2.03217e-16 0.0 -3.88251e-19 4.05271 -7.54727 2.63312 0.0278017 12.3954 0.221723 -1.27955 -3.94168 -7.80443 2.03217e-16 0.0 3.88251e-19 0.613656 -2.8666 -5.91078 0.00150109 3.30897 -0.0790879 0.857909 -0.811444 3.99206
52.5403 85.0255 134.141 -179.068 -3.268 177.877 3.54401 2.89052 4.17897 -0.1912 -4.7742 1.31282 3.35516 6.12158 7.77243 0.833061 -5.59038 14.6293 -0.0 0.0 0.0 -0.0 0.0 0.0 4.29591e-14 -1.17566e-13 2.27049e-14 44.484 14.8865 -9.15415 -8.48106 -4.05872 14.0099 -0.0735111 16.2201 2.27325 -8.92483e-10 4.46371e-10 -5.33117e-11 -1.54131e-09 7.49086e-10 -6.80125e-11 -8.92478e-10 4.46372e-10 -5.3326e-11 7.73091 5.47488 0.417314 -8.92484e-10 4.4637e-10 -5.33158e-11 2.90554 0.965183 0.102902 -8.9248e-10 4.46371e-10 -5.3312e-11 10.2786 0.731801 0.0259123 -8.92486e-10 4.46372e-10 -5.33005e-11 2.22167 -0.733487 -0.20892 4.28069e-14 -1.17566e-13 2.23664e-14 -45.3515 16.8938 6.38185 9.90283 -5.15788 -16.1603 0.0252785 9.59016 -1.34643 -3.15052e-10 -9.23686e-10 -5.87615e-10 -5.52925e-10 -1.60185e-09 -1.01014e-09 -3.15053e-10 -9.23685e-10 -5.87608e-10 -7.73091 5.47488 -0.417314 -3.1505e-10 -9.23686e-10 -5.87618e-10 -2.90554 0.965183 -0.102902 -3.15057e-10 -9.23685e-10 -5.87616e-10 -10.2786 0.731801 -0.0259123 -3.15046e-10 -9.23684e-10 -5.87622e-10 -2.22167 -0.733487 0.20892 -2.03217e-16 0.0 -3.88251e-19 5.93119 -7.02011 5.63182 0.0415028 16.0229 0.298501 -3.01161 -6.89789 -16.1653 2.03217e-16 0.0 3.88251e-19 -0.383834 -3.79634 -12.1683 0.0248018 9.00101 -0.238474 2.06711 -5.83649 8.38016
52.5563 85.0291 134.139 -179.058 -3.1301 177.863 3.96475 4.1901 6.0678 -0.511853 -6.96205 1.8683 4.29069 8.79203 11.3483 2.20672 -7.79509 21.3271 -0.0 0.0 0.0 -0.0 0.0 0.0 5.27996e-14 -1.67869e-13 3.38113e-14 66.5777 21.4043 -13.8614 -11.7173 -5.72043 20.4938 -0.574776 23.6255 3.47363 -1.3785e-09 6.38135e-10 -7.26122e-11 -2.38054e-09 1.07036e-09 -9.04698e-11 -1.3785e-09 6.38136e-10 -7.26215e-11 7.73091 5.47488 0.417314 -1.3785e-09 6.38134e-10 -7.26139e-11 2.90554 0.965183 0.102902 -1.3785e-09 6.38134e-10 -7.26088e-11 10.2786 0.731801 0.0259123 -1.37851e-09 6.38137e-10 -7.25977e-11 2.22167 -0.733487 -0.20892 5.267e-14 -1.6787e-13 3.34583e-14 -67.4883 24.4448 9.78489 13.4823 -7.17745 -23.664 0.191841 13.9784 -1.9948 -5.32831e-10 -1.32221e-09 -8.34146e-10 -9.32717e-10 -2.29285e-09 -1.43387e-09 -5.32831e-10 -1.32221e-09 -8.34138e-10 -7.73091 5.47488 -0.417314 -5.32828e-10 -1.32221e-09 -8.34152e-10 -2.90554 0.965183 -0.102902 -5.32836e-10 -1.32221e-09 -8.34149e-10 -10.2786 0.731801 -0.0259123 -5.32825e-10 -1.32221e-09 -8.34153e-10 -2.22167 -0.733487 0.20892 -2.03217e-16 0.0 -3.88251e-19 7.58005 -6.53666 8.34374 0.0447157 19.2387 0.369946 -5.28528 -9.19788 -23.7511 2.03217e-16 0.0 3.88251e-19 -1.43364 -4.5627 -17.7575 0.0731637 14.084 -0.387291 3.80929 -10.1988 12.4283
